<svg xmlns="http://www.w3.org/2000/svg" width="217" height="251" viewBox="0 0 217 251"><path d="m110 3.1-22.15 43.11 17.1 26.11v-29.71h5.95v43.3l28.51 14.15v-50l42.7 26.66v23.99l-11.5 10.71h-24.08v26.49h24.08l11.34 10.3v24l-42.54 26.66v-49.68l-28.51 12.88v85.32l100.2-60.45v-49.51l-15.41-13.04 15.41-13.99v-48.75l-100.2-58.55h-1z" fill="#F2F2F2"></path><path d="m110.9 94.11 28.51 14.71v33.21l-28.51 11.5v-59.42z" fill="#F2F2F2"></path><path d="m105.1 87.49-22.97-38.33-74.92 14.75-0.16 0.64v122.4l27.95 16.25v-121.2l42.06-26.91v50.93l-35.53 21.3v30.56l15.33-9.2 20.28 46.04v34.71l27.64 17.37v-57.4l-24.49-54.29 24.81-14.07v-33.58z" fill="#F2F2F2"></path><path d="m102 4.71-82.67 48.43-0.16 1.3 62.59-11.1 20.24-38.63z" fill="#F2F2F2"></path></svg>